<?xml version="1.0" encoding="utf-8"?>
<!-- Svg Vector Icons : http://www.onlinewebfonts.com/icon -->
<!DOCTYPE svg PUBLIC "-//W3C//DTD SVG 1.1//EN" "http://www.w3.org/Graphics/SVG/1.1/DTD/svg11.dtd">
<svg version="1.1" xmlns="http://www.w3.org/2000/svg" xmlns:xlink="http://www.w3.org/1999/xlink" x="0px" y="0px" viewBox="0 0 1000 1000" enable-background="new 0 0 1000 1000" xml:space="preserve">
<metadata> Svg Vector Icons : http://www.onlinewebfonts.com/icon </metadata>
<g><path d="M810.1,802"/><path d="M500,10C229.4,10,10,229.4,10,500s219.4,490,490,490c270.6,0,490-219.4,490-490C990,229.4,770.6,10,500,10z M500,922.3C266.8,922.3,77.7,733.2,77.7,500C77.7,266.8,266.8,77.7,500,77.7c233.2,0,422.3,189.1,422.3,422.3C922.3,733.2,733.2,922.3,500,922.3z"/><path d="M503.6,209.9c-116.8,0-211.4,94.7-211.4,211.4s94.7,211.4,211.4,211.4c116.8,0,211.4-94.7,211.4-211.4C715,304.6,620.3,209.9,503.6,209.9z M503.6,591c-93.7,0-169.7-76-169.7-169.7c0-93.7,76-169.7,169.7-169.7c93.7,0,169.7,76,169.7,169.7C673.2,515,597.3,591,503.6,591z"/><path d="M499.1,589.1c-138.6,0-258.8,78.4-318.8,193.2c13.3,13.5,27.3,26.1,42.2,37.9C271,715.9,376.6,643.7,499.1,643.7c123.7,0,230.1,73.6,278,179.4c15-11.6,29.2-24.1,42.6-37.4C760.3,669,639,589.1,499.1,589.1z"/></g>
</svg>